<svg id="Layer_1" data-name="Layer 1" xmlns="http://www.w3.org/2000/svg" xmlns:xlink="http://www.w3.org/1999/xlink" viewBox="0 0 587 182"><defs><style>.cls-1{fill:none;}.cls-2,.cls-5{fill:#ffce07;}.cls-3{clip-path:url(#clip-path);}.cls-4{opacity:0.5;}.cls-5{opacity:0;}.cls-6{fill:#fecd08;opacity:0.01;}.cls-7{fill:#fecc09;opacity:0.02;}.cls-8{fill:#fecb0b;opacity:0.03;}.cls-9{fill:#feca0c;opacity:0.04;}.cls-10{fill:#fec90d;opacity:0.05;}.cls-11{fill:#fec80e;opacity:0.06;}.cls-12{fill:#fdc70f;opacity:0.07;}.cls-13{fill:#fdc510;opacity:0.08;}.cls-14{fill:#fdc411;opacity:0.09;}.cls-15{fill:#fdc312;opacity:0.1;}.cls-16{fill:#fdc213;opacity:0.11;}.cls-17{fill:#fcc113;opacity:0.12;}.cls-18{fill:#fcc014;opacity:0.13;}.cls-19{fill:#fcbf15;opacity:0.14;}.cls-20{fill:#fcbe15;opacity:0.15;}.cls-21{fill:#fcbc16;opacity:0.16;}.cls-22{fill:#fcbb16;opacity:0.17;}.cls-23{fill:#fcba17;opacity:0.18;}.cls-24{fill:#fbb917;opacity:0.19;}.cls-25{fill:#fbb818;opacity:0.2;}.cls-26{fill:#fbb718;opacity:0.21;}.cls-27{fill:#fbb619;opacity:0.22;}.cls-28{fill:#fbb419;opacity:0.23;}.cls-29{fill:#fbb31a;opacity:0.24;}.cls-30{fill:#fab21a;opacity:0.25;}.cls-31{fill:#fab11b;opacity:0.26;}.cls-32{fill:#fab01b;opacity:0.27;}.cls-33{fill:#faaf1c;opacity:0.28;}.cls-34{fill:#faae1c;opacity:0.29;}.cls-35{fill:#f9ac1c;opacity:0.3;}.cls-36{fill:#f9ab1d;opacity:0.31;}.cls-37{fill:#f9aa1d;opacity:0.32;}.cls-38{fill:#f9a91d;opacity:0.33;}.cls-39{fill:#f9a81e;opacity:0.34;}.cls-40{fill:#f9a71e;opacity:0.35;}.cls-41{fill:#f9a61e;opacity:0.36;}.cls-42{fill:#f9a51e;opacity:0.37;}.cls-43{fill:#f8a41f;opacity:0.38;}.cls-44{fill:#f8a21f;opacity:0.39;}.cls-45{fill:#f8a11f;opacity:0.4;}.cls-46{fill:#f8a01f;opacity:0.41;}.cls-47{fill:#f89f20;opacity:0.42;}.cls-48{fill:#f89e20;opacity:0.43;}.cls-49{fill:#f89d20;opacity:0.44;}.cls-50{fill:#f79c20;opacity:0.45;}.cls-51{fill:#f79b21;opacity:0.46;}.cls-52{fill:#f79a21;opacity:0.47;}.cls-53{fill:#f79821;opacity:0.48;}.cls-54{fill:#f79721;opacity:0.49;}.cls-55{fill:#f79621;opacity:0.5;}.cls-56{fill:#f79521;opacity:0.5;}.cls-57{fill:#f69422;opacity:0.51;}.cls-58{fill:#f69322;opacity:0.52;}.cls-59{fill:#f69222;opacity:0.53;}.cls-60{fill:#f69122;opacity:0.54;}.cls-61{fill:#f69022;opacity:0.55;}.cls-62{fill:#f68f22;opacity:0.56;}.cls-63{fill:#f68e23;opacity:0.57;}.cls-64{fill:#f68d23;opacity:0.58;}.cls-65{fill:#f68c23;opacity:0.59;}.cls-66{fill:#f58b23;opacity:0.6;}.cls-67{fill:#f58923;opacity:0.61;}.cls-68{fill:#f58823;opacity:0.62;}.cls-69{fill:#f58723;opacity:0.63;}.cls-70{fill:#f58623;opacity:0.64;}.cls-71{fill:#f58524;opacity:0.65;}.cls-72{fill:#f58424;opacity:0.66;}.cls-73{fill:#f58324;opacity:0.67;}.cls-74{fill:#f48224;opacity:0.68;}.cls-75{fill:#f48124;opacity:0.69;}.cls-76{fill:#f48024;opacity:0.7;}.cls-77{fill:#f47f24;opacity:0.71;}.cls-78{fill:#f47d24;opacity:0.72;}.cls-79{fill:#f47c24;opacity:0.73;}.cls-80{fill:#f47b25;opacity:0.74;}.cls-81{fill:#f47a25;opacity:0.75;}.cls-82{fill:#f47925;opacity:0.76;}.cls-83{fill:#f37825;opacity:0.77;}.cls-84{fill:#f37725;opacity:0.78;}.cls-85{fill:#f37625;opacity:0.79;}.cls-86{fill:#f37425;opacity:0.8;}.cls-87{fill:#f37325;opacity:0.81;}.cls-88{fill:#f37225;opacity:0.82;}.cls-89{fill:#f37125;opacity:0.83;}.cls-90{fill:#f37025;opacity:0.84;}.cls-91{fill:#f36f26;opacity:0.85;}.cls-92{fill:#f26d26;opacity:0.86;}.cls-93{fill:#f26c26;opacity:0.87;}.cls-94{fill:#f26b26;opacity:0.88;}.cls-95{fill:#f26a26;opacity:0.89;}.cls-96{fill:#f26826;opacity:0.9;}.cls-97{fill:#f26726;opacity:0.91;}.cls-98{fill:#f26626;opacity:0.92;}.cls-99{fill:#f26426;opacity:0.93;}.cls-100{fill:#f26326;opacity:0.94;}.cls-101{fill:#f16226;opacity:0.95;}.cls-102{fill:#f16026;opacity:0.96;}.cls-103{fill:#f15f26;opacity:0.97;}.cls-104{fill:#f15e26;opacity:0.98;}.cls-105{fill:#f15c27;opacity:0.99;}.cls-106{fill:#f15b27;}.cls-107{fill:#fff;}.cls-108{fill:url(#radial-gradient);}.cls-109{fill:#f16723;opacity:0.2;}</style><clipPath id="clip-path"><path id="SVGID" class="cls-1" d="M222.31,72,168.83,18.52a29.73,29.73,0,0,0-42,0h0A192.67,192.67,0,0,1,45.5,67L40,68.62H76.73l-10.91,12L.36,101.53H65.9l9.62,10.54L40.79,126.5h0a108.78,108.78,0,0,1,76.92,31.86l9.11,9.12a29.73,29.73,0,0,0,42,0L222.31,114A29.71,29.71,0,0,0,222.31,72Z"/></clipPath><radialGradient id="radial-gradient" cx="175.23" cy="109.99" r="52.33" gradientUnits="userSpaceOnUse"><stop offset="0" stop-color="#989898"/><stop offset="1" stop-color="#fff" stop-opacity="0"/></radialGradient></defs><path class="cls-2" d="M222.31,72,168.83,18.52a29.73,29.73,0,0,0-42,0h0A192.67,192.67,0,0,1,45.5,67L40,68.62H76.73l-10.91,12L.36,101.53H65.9l9.62,10.54L40.79,126.5h0a108.78,108.78,0,0,1,76.92,31.86l9.11,9.12a29.73,29.73,0,0,0,42,0L222.31,114A29.71,29.71,0,0,0,222.31,72Z"/><g class="cls-3"><g class="cls-4"><path class="cls-5" d="M164.86,130.25l7.32-15.6h-8.83a30.58,30.58,0,0,0-26.65-45.6H87.77v81.88l15.6,16V84.66H136.7a15,15,0,0,1,0,30H114.12l-7.32,15.6h20.92l27,35.73,11.14-11.14-18.55-24.59Z"/><path class="cls-6" d="M165.09,130l7.32-15.6h-8.83a30.58,30.58,0,0,0-26.66-45.59H88V150.7l15.6,16.05V84.43h33.32a15,15,0,1,1,0,30H114.35L107,130H128l27,35.73,11.14-11.14L147.5,130Z"/><path class="cls-7" d="M165.32,129.79l7.32-15.6h-8.83A30.58,30.58,0,0,0,137.15,68.6H88.23v81.88l15.6,16.05V84.2h33.32a15,15,0,1,1,0,30H114.58l-7.32,15.6h20.92l27,35.74,11.13-11.14-18.55-24.6Z"/><path class="cls-8" d="M165.54,129.56l7.33-15.6H164a30.56,30.56,0,0,0-26.65-45.59H88.45v81.88l15.61,16.05V84h33.32a15,15,0,0,1,0,30H114.81l-7.33,15.6h20.93l27,35.74,11.14-11.14L148,129.56Z"/><path class="cls-9" d="M165.77,129.34l7.32-15.6h-8.83a30.58,30.58,0,0,0-26.65-45.6H88.68V150l15.6,16V83.74h33.33a15,15,0,0,1,0,30H115l-7.32,15.6h20.93l27,35.73,11.14-11.14-18.55-24.59Z"/><path class="cls-10" d="M166,129.11l7.32-15.6h-8.83a30.58,30.58,0,0,0-26.66-45.59H88.91v81.87l15.6,16.05V83.52h33.32a15,15,0,1,1,0,30H115.26l-7.32,15.6h20.92l27,35.73L167,153.7l-18.55-24.59Z"/><path class="cls-11" d="M166.23,128.88l7.32-15.6h-8.83a30.58,30.58,0,0,0-26.66-45.59H89.14v81.88l15.6,16.05V83.29h33.32a15,15,0,1,1,0,30H115.49l-7.32,15.6h20.92l27,35.74,11.13-11.14-18.55-24.6Z"/><path class="cls-12" d="M166.45,128.65l7.33-15.6h-8.84a30.56,30.56,0,0,0-26.65-45.59H89.36v81.88l15.61,16V83.06h33.32a15,15,0,0,1,0,30H115.72l-7.33,15.6h20.93l27,35.74,11.14-11.14-18.55-24.6Z"/><path class="cls-13" d="M166.68,128.43l7.32-15.6h-8.83a30.58,30.58,0,0,0-26.65-45.6H89.59v81.88l15.6,16V82.83h33.33a15,15,0,0,1,0,30H115.94l-7.32,15.6h20.93l26.95,35.73L167.64,153l-18.55-24.59Z"/><path class="cls-14" d="M166.91,128.2l7.32-15.6H165.4A30.58,30.58,0,0,0,138.74,67H89.82v81.87l15.6,16.05V82.61h33.32a15,15,0,1,1,0,30H116.17l-7.32,15.6h20.92l27,35.73,11.14-11.14L149.32,128.2Z"/><path class="cls-15" d="M167.14,128l7.32-15.6h-8.83A30.58,30.58,0,0,0,139,66.78H90.05v81.88l15.6,16.05V82.38H139a15,15,0,1,1,0,30H116.4L109.08,128H130l27,35.74,11.14-11.14L149.54,128Z"/><path class="cls-16" d="M167.36,127.74l7.33-15.6h-8.84A30.56,30.56,0,0,0,139.2,66.55H90.27v81.88l15.61,16V82.15H139.2a15,15,0,0,1,0,30H116.63l-7.33,15.6h20.93l27,35.74,11.14-11.14-18.55-24.6Z"/><path class="cls-17" d="M167.59,127.52l7.33-15.61h-8.84a30.3,30.3,0,0,0,3.94-15,30.63,30.63,0,0,0-30.59-30.6H90.5V148.2l15.6,16.05V81.92h33.33a15,15,0,0,1,0,30H116.85l-7.32,15.61h20.93l26.95,35.73,11.14-11.14L150,127.52Z"/><path class="cls-18" d="M167.82,127.29l7.32-15.6h-8.83a30.58,30.58,0,0,0-26.66-45.6H90.73V148L106.33,164V81.7h33.32a15,15,0,1,1,0,30H117.08l-7.32,15.6h20.92l27,35.73,11.14-11.14-18.55-24.59Z"/><path class="cls-19" d="M168.05,127.06l7.32-15.6h-8.83a30.58,30.58,0,0,0-26.66-45.59H91v81.87l15.6,16.06V81.47h33.32a15,15,0,1,1,0,30H117.31L110,127.06h20.92l27,35.74L169,151.66l-18.56-24.6Z"/><path class="cls-20" d="M168.28,126.83l7.32-15.6h-8.84a30.56,30.56,0,0,0-26.65-45.59H91.18v81.88l15.61,16V81.24h33.32a15,15,0,0,1,0,30H117.54l-7.32,15.6h20.92l27,35.74,11.14-11.14-18.55-24.6Z"/><path class="cls-21" d="M168.5,126.61,175.83,111H167a30.3,30.3,0,0,0,3.94-15,30.63,30.63,0,0,0-30.59-30.6H91.41v81.88L107,163.34V81h33.33a15,15,0,0,1,0,30H117.77l-7.33,15.61h20.93l26.95,35.73,11.14-11.14-18.55-24.59Z"/><path class="cls-22" d="M168.73,126.38l7.32-15.6h-8.83a30.58,30.58,0,0,0-26.65-45.6H91.64v81.88l15.6,16.05V80.79h33.33a15,15,0,0,1,0,30H118l-7.32,15.6h20.92l27,35.73L169.69,151l-18.55-24.59Z"/><path class="cls-23" d="M169,126.15l7.32-15.6h-8.83A30.58,30.58,0,0,0,140.79,65H91.87v81.87l15.6,16.06V80.56h33.32a15,15,0,1,1,0,30H118.22l-7.32,15.6h20.92l27,35.73,11.14-11.13-18.56-24.6Z"/><path class="cls-24" d="M169.19,125.92l7.32-15.6h-8.84A30.56,30.56,0,0,0,141,64.73H92.1v81.88l15.6,16V80.33H141a15,15,0,1,1,0,30H118.45l-7.32,15.6h20.92L159,161.66l11.14-11.14-18.55-24.6Z"/><path class="cls-25" d="M169.41,125.7l7.33-15.61H167.9A30.58,30.58,0,0,0,141.25,64.5H92.32v81.88l15.6,16.05V80.1h33.33a15,15,0,0,1,0,30H118.68l-7.33,15.61h20.93l26.95,35.73,11.14-11.14L151.82,125.7Z"/><path class="cls-26" d="M169.64,125.47l7.32-15.6h-8.83a30.58,30.58,0,0,0-26.65-45.6H92.55v81.88l15.6,16V79.88h33.33a15,15,0,0,1,0,30H118.9l-7.32,15.6H132.5l27,35.73,11.14-11.14-18.55-24.59Z"/><path class="cls-27" d="M169.87,125.24l7.32-15.6h-8.83A30.58,30.58,0,0,0,141.7,64.05H92.78v81.87L108.38,162V79.65H141.7a15,15,0,1,1,0,30H119.13l-7.32,15.6h20.92l27,35.73,11.14-11.13-18.56-24.6Z"/><path class="cls-28" d="M170.1,125l7.32-15.6h-8.83a30.58,30.58,0,0,0-26.66-45.59H93V145.7l15.6,16.05V79.42h33.32a15,15,0,1,1,0,30H119.36L112,125H133l26.95,35.74,11.14-11.14L152.5,125Z"/><path class="cls-29" d="M170.32,124.79l7.33-15.61h-8.84a30.58,30.58,0,0,0-26.65-45.59H93.23v81.88l15.6,16.05V79.19h33.33a15,15,0,0,1,0,30H119.59l-7.33,15.61h20.93l26.95,35.73,11.14-11.14-18.55-24.59Z"/><path class="cls-30" d="M170.55,124.56l7.32-15.6H169a30.58,30.58,0,0,0-26.65-45.6H93.46v81.88l15.6,16V79h33.33a15,15,0,0,1,0,30H119.81l-7.32,15.6h20.92l27,35.73,11.14-11.14L153,124.56Z"/><path class="cls-31" d="M170.78,124.33l7.32-15.6h-8.83a30.58,30.58,0,0,0-26.66-45.59H93.69V145l15.6,16.05V78.74h33.32a15,15,0,1,1,0,30H120l-7.32,15.6h20.92l27,35.73,11.14-11.14-18.56-24.59Z"/><path class="cls-32" d="M171,124.1l7.32-15.6H169.5a30.58,30.58,0,0,0-26.66-45.59H93.92v81.88l15.6,16.05V78.51h33.32a15,15,0,1,1,0,30H120.27L113,124.1h20.92l26.95,35.74L172,148.7l-18.55-24.6Z"/><path class="cls-33" d="M171.23,123.88l7.33-15.61h-8.84a30.56,30.56,0,0,0-26.65-45.59H94.14v81.88l15.61,16.05V78.28h33.32a15,15,0,0,1,0,30H120.5l-7.33,15.61H134.1l27,35.73,11.14-11.14-18.55-24.59Z"/><path class="cls-34" d="M171.46,123.65l7.32-15.6H170a30.58,30.58,0,0,0-26.65-45.6H94.37v81.88l15.6,16V78.06H143.3a15,15,0,0,1,0,30H120.72l-7.32,15.6h20.92l27,35.73,11.14-11.14-18.55-24.59Z"/><path class="cls-35" d="M171.69,123.42l7.32-15.6h-8.83a30.58,30.58,0,0,0-26.66-45.59H94.6V144.1l15.6,16.05V77.83h33.32a15,15,0,1,1,0,30H121l-7.32,15.6h20.92l27,35.73L172.65,148,154.1,123.42Z"/><path class="cls-36" d="M171.92,123.19l7.32-15.6h-8.83A30.58,30.58,0,0,0,143.75,62H94.83v81.88l15.6,16.05V77.6h33.32a15,15,0,1,1,0,30H121.18l-7.32,15.6h20.92l27,35.74,11.13-11.14-18.55-24.6Z"/><path class="cls-37" d="M172.14,123l7.33-15.6h-8.84A30.56,30.56,0,0,0,144,61.77H95.05v81.88l15.61,16V77.37H144a15,15,0,0,1,0,30H121.41L114.08,123H135l27,35.74,11.14-11.14L154.55,123Z"/><path class="cls-38" d="M172.37,122.74l7.32-15.6h-8.83a30.58,30.58,0,0,0-26.65-45.6H95.28v81.88l15.6,16.05V77.14h33.33a15,15,0,0,1,0,30H121.63l-7.32,15.6h20.93l26.95,35.73,11.14-11.14-18.55-24.59Z"/><path class="cls-39" d="M172.6,122.51l7.32-15.6h-8.83a30.58,30.58,0,0,0-26.66-45.59H95.51v81.87l15.6,16.05V76.92h33.32a15,15,0,1,1,0,30H121.86l-7.32,15.6h20.92l27,35.73,11.14-11.14L155,122.51Z"/><path class="cls-40" d="M172.83,122.28l7.32-15.6h-8.83a30.58,30.58,0,0,0-26.66-45.59H95.74V143L111.34,159V76.69h33.32a15,15,0,1,1,0,30H122.09l-7.32,15.6h20.92l27,35.74,11.13-11.14-18.55-24.6Z"/><path class="cls-41" d="M173.05,122.05l7.33-15.6h-8.84a30.56,30.56,0,0,0-26.65-45.59H96v81.88l15.61,16V76.46h33.32a15,15,0,0,1,0,30H122.32L115,122.05h20.93l27,35.74L174,146.65l-18.55-24.6Z"/><path class="cls-42" d="M173.28,121.83l7.32-15.6h-8.83a30.58,30.58,0,0,0-26.65-45.6H96.19v81.88l15.6,16.05V76.23h33.33a15,15,0,0,1,0,30H122.54l-7.32,15.6h20.93l26.95,35.73,11.14-11.14-18.55-24.59Z"/><path class="cls-43" d="M173.51,121.6l7.32-15.6H172a30.58,30.58,0,0,0-26.66-45.59H96.42v81.87L112,158.33V76h33.32a15,15,0,1,1,0,30H122.77l-7.32,15.6h20.92l27,35.73,11.14-11.14L155.92,121.6Z"/><path class="cls-44" d="M173.74,121.37l7.32-15.6h-8.83a30.58,30.58,0,0,0-26.66-45.59H96.65v81.88l15.6,16.05V75.78h33.32a15,15,0,1,1,0,30H123l-7.32,15.6H136.6l27,35.74L174.7,146l-18.56-24.6Z"/><path class="cls-45" d="M174,121.14l7.33-15.6h-8.84A30.56,30.56,0,0,0,145.8,60H96.87v81.88l15.61,16V75.55H145.8a15,15,0,0,1,0,30H123.23l-7.33,15.6h20.93l26.95,35.74,11.14-11.14-18.55-24.6Z"/><path class="cls-46" d="M174.19,120.92l7.33-15.61h-8.84a30.3,30.3,0,0,0,3.94-15A30.63,30.63,0,0,0,146,59.72H97.1V141.6l15.6,16.05V75.32H146a15,15,0,0,1,0,30H123.45l-7.32,15.61h20.93L164,156.65l11.14-11.14L156.6,120.92Z"/><path class="cls-47" d="M174.42,120.69l7.32-15.6h-8.83a30.58,30.58,0,0,0-26.66-45.6H97.33v81.88l15.6,16V75.1h33.32a15,15,0,1,1,0,30H123.68l-7.32,15.6h20.92l27,35.73,11.14-11.14-18.55-24.59Z"/><path class="cls-48" d="M174.65,120.46l7.32-15.6h-8.83a30.58,30.58,0,0,0-26.66-45.59H97.56v81.87l15.6,16.06V74.87h33.32a15,15,0,1,1,0,30H123.91l-7.32,15.6h20.92l27,35.74,11.14-11.14-18.56-24.6Z"/><path class="cls-49" d="M174.88,120.23l7.32-15.6h-8.84A30.56,30.56,0,0,0,146.71,59H97.78v81.88L113.39,157V74.64h33.32a15,15,0,0,1,0,30H124.14l-7.32,15.6h20.92L164.69,156l11.14-11.14-18.55-24.6Z"/><path class="cls-50" d="M175.1,120l7.33-15.61h-8.84a30.3,30.3,0,0,0,3.94-15,30.63,30.63,0,0,0-30.59-30.6H98v81.88l15.6,16.05V74.41h33.33a15,15,0,0,1,0,30H124.37L117,120H138l26.95,35.73,11.14-11.14L157.51,120Z"/><path class="cls-51" d="M175.33,119.78l7.32-15.6h-8.83a30.58,30.58,0,0,0-26.66-45.6H98.24v81.88l15.6,16V74.19h33.32a15,15,0,1,1,0,30H124.59l-7.32,15.6h20.92l27,35.73,11.14-11.14-18.55-24.59Z"/><path class="cls-52" d="M175.56,119.55l7.32-15.6h-8.83a30.58,30.58,0,0,0-26.66-45.59H98.47v81.87l15.6,16.06V74h33.32a15,15,0,1,1,0,30H124.82l-7.32,15.6h20.92l27,35.73,11.14-11.13L158,119.55Z"/><path class="cls-53" d="M175.79,119.32l7.32-15.6h-8.84a30.56,30.56,0,0,0-26.65-45.59H98.7V140l15.6,16.05V73.73h33.32a15,15,0,1,1,0,30H125.05l-7.32,15.6h20.92l26.95,35.74,11.14-11.14-18.55-24.6Z"/><path class="cls-54" d="M176,119.1l7.33-15.61H174.5a30.3,30.3,0,0,0,3.94-15,30.63,30.63,0,0,0-30.59-30.6H98.92v81.88l15.6,16.05V73.5h33.33a15,15,0,0,1,0,30H125.28L118,119.1h20.93l27,35.73L177,143.69,158.42,119.1Z"/><path class="cls-55" d="M176.24,118.87l7.32-15.6h-8.83a30.58,30.58,0,0,0-26.65-45.6H99.15v81.88l15.6,16V73.28h33.33a15,15,0,0,1,0,30H125.5l-7.32,15.6H139.1l27,35.73,11.14-11.14-18.55-24.59Z"/><path class="cls-56" d="M176.47,118.64l7.32-15.6H175A30.58,30.58,0,0,0,148.3,57.45H99.38v81.87L115,155.38V73.05H148.3a15,15,0,1,1,0,30H125.73l-7.32,15.6h20.92l27,35.73,11.14-11.13-18.56-24.6Z"/><path class="cls-57" d="M176.7,118.41l7.32-15.6h-8.83a30.58,30.58,0,0,0-26.66-45.59H99.61V139.1l15.6,16.05V72.82h33.32a15,15,0,1,1,0,30H126l-7.32,15.6h20.92l26.95,35.74L177.65,143l-18.55-24.6Z"/><path class="cls-58" d="M176.92,118.19l7.33-15.61h-8.84A30.58,30.58,0,0,0,148.76,57H99.83v81.88l15.6,16V72.59h33.33a15,15,0,0,1,0,30H126.19l-7.33,15.61h20.93l27,35.73,11.14-11.14-18.55-24.59Z"/><path class="cls-59" d="M177.15,118l7.32-15.6h-8.83A30.58,30.58,0,0,0,149,56.76H100.06v81.88l15.6,16.05V72.37H149a15,15,0,0,1,0,30H126.41L119.09,118H140l27,35.73,11.14-11.14L159.56,118Z"/><path class="cls-60" d="M177.38,117.73l7.32-15.6h-8.83a30.58,30.58,0,0,0-26.66-45.59H100.29v81.87l15.6,16.05V72.14h33.32a15,15,0,1,1,0,30H126.64l-7.32,15.6h20.92l27,35.73,11.14-11.14-18.56-24.59Z"/><path class="cls-61" d="M177.61,117.5l7.32-15.6H176.1a30.58,30.58,0,0,0-26.66-45.59H100.52v81.88l15.6,16.05V71.91h33.32a15,15,0,1,1,0,30H126.87l-7.32,15.6h20.92l26.95,35.74,11.14-11.14L160,117.5Z"/><path class="cls-62" d="M177.83,117.28l7.33-15.61h-8.84a30.56,30.56,0,0,0-26.65-45.59H100.74V138l15.61,16V71.68h33.32a15,15,0,0,1,0,30H127.1l-7.33,15.61H140.7l27,35.73,11.14-11.14-18.55-24.59Z"/><path class="cls-63" d="M178.06,117.05l7.32-15.6h-8.83a30.58,30.58,0,0,0-26.65-45.6H101v81.88l15.6,16.05V71.46H149.9a15,15,0,0,1,0,30H127.32L120,117.05h20.92l27,35.73L179,141.64l-18.55-24.59Z"/><path class="cls-64" d="M178.29,116.82l7.32-15.6h-8.83a30.58,30.58,0,0,0-26.66-45.59H101.2V137.5l15.6,16.05V71.23h33.32a15,15,0,1,1,0,30H127.55l-7.32,15.6h20.92l27,35.73,11.14-11.14L160.7,116.82Z"/><path class="cls-65" d="M178.52,116.59l7.32-15.6H177A30.58,30.58,0,0,0,150.35,55.4H101.43v81.88L117,153.33V71h33.32a15,15,0,1,1,0,30H127.78l-7.32,15.6h20.92l27,35.74,11.14-11.14-18.55-24.6Z"/><path class="cls-66" d="M178.74,116.36l7.33-15.6h-8.84a30.56,30.56,0,0,0-26.65-45.59H101.65v81.88l15.61,16V70.77h33.32a15,15,0,0,1,0,30H128l-7.33,15.6h20.93l26.95,35.74L179.7,141l-18.55-24.6Z"/><path class="cls-67" d="M179,116.14l7.32-15.6h-8.83a30.58,30.58,0,0,0-26.65-45.6H101.88v81.88l15.6,16.05V70.54h33.33a15,15,0,0,1,0,30H128.23l-7.32,15.6h20.92l27,35.73,11.14-11.14-18.55-24.59Z"/><path class="cls-68" d="M179.2,115.91l7.32-15.6h-8.83A30.58,30.58,0,0,0,151,54.72H102.11v81.87l15.6,16V70.32H151a15,15,0,1,1,0,30H128.46l-7.32,15.6h20.92l27,35.73,11.14-11.14-18.55-24.59Z"/><path class="cls-69" d="M179.43,115.68l7.32-15.6h-8.83a30.58,30.58,0,0,0-26.66-45.59H102.34v81.88l15.6,16V70.09h33.32a15,15,0,1,1,0,30H128.69l-7.32,15.6h20.92l27,35.74,11.13-11.14-18.55-24.6Z"/><path class="cls-70" d="M179.65,115.45,187,99.85h-8.84a30.56,30.56,0,0,0-26.65-45.59H102.56v81.88l15.61,16.05V69.86h33.32a15,15,0,0,1,0,30H128.92l-7.33,15.6h20.93l26.95,35.74,11.14-11.14-18.55-24.6Z"/><path class="cls-71" d="M179.88,115.23l7.32-15.6h-8.83A30.58,30.58,0,0,0,151.72,54H102.79v81.88L118.39,152V69.63h33.33a15,15,0,0,1,0,30H129.14l-7.32,15.6h20.93L169.7,151l11.14-11.14-18.55-24.59Z"/><path class="cls-72" d="M180.11,115l7.32-15.6H178.6a30.58,30.58,0,0,0-26.66-45.59H103v81.87l15.6,16V69.41h33.32a15,15,0,1,1,0,30H129.37L122.05,115H143l27,35.73,11.14-11.14L162.52,115Z"/><path class="cls-73" d="M180.34,114.77l7.32-15.6h-8.83a30.58,30.58,0,0,0-26.66-45.59H103.25v81.88l15.6,16V69.18h33.32a15,15,0,1,1,0,30H129.6l-7.32,15.6H143.2l27,35.74,11.14-11.14-18.56-24.6Z"/><path class="cls-74" d="M180.56,114.54l7.33-15.6h-8.84A30.56,30.56,0,0,0,152.4,53.35H103.47v81.88l15.61,16.05V69H152.4a15,15,0,0,1,0,30H129.83l-7.33,15.6h20.93l26.95,35.74,11.14-11.14L163,114.54Z"/><path class="cls-75" d="M180.79,114.32l7.32-15.61h-8.83a30.3,30.3,0,0,0,3.94-15,30.63,30.63,0,0,0-30.59-30.6H103.7V135l15.6,16.05V68.72h33.33a15,15,0,0,1,0,30H130.05l-7.32,15.61h20.93l27,35.73,11.14-11.14L163.2,114.32Z"/><path class="cls-76" d="M181,114.09l7.32-15.6h-8.83A30.58,30.58,0,0,0,152.85,52.9H103.93v81.87l15.6,16V68.5h33.32a15,15,0,1,1,0,30H130.28L123,114.09h20.92l27,35.73L182,138.68l-18.55-24.59Z"/><path class="cls-77" d="M181.25,113.86l7.32-15.6h-8.83a30.58,30.58,0,0,0-26.66-45.59H104.16v81.87l15.6,16.06V68.27h33.32a15,15,0,1,1,0,30H130.51l-7.32,15.6h20.92l27,35.74,11.14-11.14-18.56-24.6Z"/><path class="cls-78" d="M181.48,113.63,188.8,98H180a30.56,30.56,0,0,0-26.65-45.59H104.38v81.88L120,150.37V68h33.32a15,15,0,0,1,0,30H130.74l-7.32,15.6h20.92l26.95,35.74,11.14-11.14-18.55-24.6Z"/><path class="cls-79" d="M181.7,113.41,189,97.8h-8.84a30.3,30.3,0,0,0,3.94-15,30.63,30.63,0,0,0-30.59-30.6H104.61v81.88l15.6,16V67.81h33.33a15,15,0,0,1,0,30H131l-7.33,15.61h20.93l27,35.73L182.66,138l-18.55-24.59Z"/><path class="cls-80" d="M181.93,113.18l7.32-15.6h-8.83A30.58,30.58,0,0,0,153.76,52H104.84v81.88l15.6,16V67.59h33.32a15,15,0,1,1,0,30H131.19l-7.32,15.6h20.92l27,35.73,11.14-11.14-18.55-24.59Z"/><path class="cls-81" d="M182.16,113l7.32-15.6h-8.83A30.58,30.58,0,0,0,154,51.76H105.07v81.87l15.6,16.06V67.36H154a15,15,0,1,1,0,30H131.42L124.1,113H145l27,35.73,11.14-11.13L164.56,113Z"/><path class="cls-82" d="M182.39,112.72l7.32-15.6h-8.84a30.56,30.56,0,0,0-26.65-45.59H105.3v81.88l15.6,16.05V67.13h33.32a15,15,0,1,1,0,30H131.65l-7.32,15.6h20.92l26.95,35.74,11.14-11.14-18.55-24.6Z"/><path class="cls-83" d="M182.61,112.5l7.33-15.61H181.1a30.3,30.3,0,0,0,3.94-15,30.63,30.63,0,0,0-30.59-30.6H105.52v81.88l15.6,16V66.9h33.33a15,15,0,0,1,0,30H131.88l-7.33,15.61h20.93l27,35.73,11.14-11.14L165,112.5Z"/><path class="cls-84" d="M182.84,112.27l7.32-15.6h-8.83a30.58,30.58,0,0,0-26.65-45.6H105.75V133L121.35,149V66.68h33.33a15,15,0,0,1,0,30H132.1l-7.32,15.6H145.7l27,35.73,11.14-11.14-18.55-24.59Z"/><path class="cls-85" d="M183.07,112l7.32-15.6h-8.83A30.58,30.58,0,0,0,154.9,50.85H106v81.87l15.6,16.06V66.45H154.9a15,15,0,1,1,0,30H132.33L125,112h20.92l27,35.73L184,136.64,165.47,112Z"/><path class="cls-86" d="M183.3,111.81l7.32-15.6h-8.83a30.58,30.58,0,0,0-26.66-45.59H106.21V132.5l15.6,16.05V66.22h33.32a15,15,0,1,1,0,30H132.56l-7.32,15.6h20.92l27,35.74,11.14-11.14-18.55-24.6Z"/><path class="cls-87" d="M183.52,111.59,190.85,96H182a30.58,30.58,0,0,0-26.65-45.59H106.43v81.88l15.6,16V66h33.33a15,15,0,0,1,0,30H132.79l-7.33,15.61h20.93l27,35.73,11.14-11.14-18.55-24.59Z"/><path class="cls-88" d="M183.75,111.36l7.32-15.6h-8.83a30.58,30.58,0,0,0-26.65-45.6H106.66V132l15.6,16.05V65.77h33.33a15,15,0,0,1,0,30H133l-7.32,15.6h20.92l27,35.73L184.71,136l-18.55-24.59Z"/><path class="cls-89" d="M184,111.13l7.32-15.6h-8.83a30.58,30.58,0,0,0-26.66-45.59H106.89v81.87l15.6,16.05V65.54h33.32a15,15,0,1,1,0,30H133.24l-7.32,15.6h20.92l27,35.73,11.14-11.14-18.56-24.59Z"/><path class="cls-90" d="M184.21,110.9l7.32-15.6H182.7A30.58,30.58,0,0,0,156,49.71H107.12v81.88l15.6,16V65.31H156a15,15,0,1,1,0,30H133.47l-7.32,15.6h20.92l27,35.74,11.14-11.14-18.55-24.6Z"/><path class="cls-91" d="M184.43,110.68l7.33-15.61h-8.84a30.56,30.56,0,0,0-26.65-45.59H107.34v81.88l15.61,16V65.08h33.32a15,15,0,0,1,0,30H133.7l-7.33,15.61H147.3l26.95,35.73,11.14-11.14-18.55-24.59Z"/><path class="cls-92" d="M184.66,110.45,192,94.85h-8.83a30.58,30.58,0,0,0-26.65-45.6H107.57v81.88l15.6,16.05V64.86H156.5a15,15,0,0,1,0,30H133.92l-7.32,15.6h20.92l27,35.73L185.62,135l-18.55-24.59Z"/><path class="cls-93" d="M184.89,110.22l7.32-15.6h-8.83A30.58,30.58,0,0,0,156.72,49H107.8V130.9l15.6,16V64.63h33.32a15,15,0,1,1,0,30H134.15l-7.32,15.6h20.92l27,35.73,11.14-11.14-18.56-24.59Z"/><path class="cls-94" d="M185.12,110l7.32-15.6h-8.83A30.58,30.58,0,0,0,157,48.8H108v81.88l15.6,16V64.4H157a15,15,0,1,1,0,30H134.38L127.06,110H148l27,35.74,11.14-11.14L167.52,110Z"/><path class="cls-95" d="M185.34,109.76l7.33-15.6h-8.84a30.56,30.56,0,0,0-26.65-45.59H108.25v81.88l15.61,16.05V64.17h33.32a15,15,0,0,1,0,30H134.61l-7.33,15.6h20.93l26.95,35.74,11.14-11.14-18.55-24.6Z"/><path class="cls-96" d="M185.57,109.54l7.32-15.6h-8.83a30.58,30.58,0,0,0-26.65-45.6H108.48v81.88l15.6,16.05V63.94h33.33a15,15,0,0,1,0,30H134.83l-7.32,15.6h20.92l27,35.73,11.14-11.14L168,109.54Z"/><path class="cls-97" d="M185.8,109.31l7.32-15.6h-8.83a30.58,30.58,0,0,0-26.66-45.59H108.71V130l15.6,16V63.72h33.32a15,15,0,1,1,0,30H135.06l-7.32,15.6h20.92l27,35.73,11.14-11.14-18.55-24.59Z"/><path class="cls-98" d="M186,109.08l7.32-15.6h-8.83a30.58,30.58,0,0,0-26.66-45.59H108.94v81.88l15.6,16V63.49h33.32a15,15,0,1,1,0,30H135.29L128,109.08h20.92l27,35.74L187,133.68l-18.55-24.6Z"/><path class="cls-99" d="M186.25,108.85l7.33-15.6h-8.84a30.56,30.56,0,0,0-26.65-45.59H109.16v81.88l15.61,16.05V63.26h33.32a15,15,0,0,1,0,30H135.52l-7.33,15.6h20.93l26.95,35.74,11.14-11.14-18.55-24.6Z"/><path class="cls-100" d="M186.48,108.63,193.8,93H185a30.58,30.58,0,0,0-26.65-45.6H109.39v81.88L125,145.36V63h33.33a15,15,0,0,1,0,30H135.74l-7.32,15.6h20.93l27,35.73,11.14-11.14-18.55-24.59Z"/><path class="cls-101" d="M186.71,108.4,194,92.8H185.2a30.58,30.58,0,0,0-26.66-45.59H109.62v81.87l15.6,16V62.81h33.32a15,15,0,1,1,0,30H136l-7.32,15.6h20.92l27,35.73L187.67,133,169.12,108.4Z"/><path class="cls-102" d="M186.94,108.17l7.32-15.6h-8.83A30.58,30.58,0,0,0,158.77,47H109.85v81.88l15.6,16V62.58h33.32a15,15,0,1,1,0,30H136.2l-7.32,15.6H149.8l27,35.74,11.13-11.14-18.55-24.6Z"/><path class="cls-103" d="M187.16,107.94l7.33-15.6h-8.84A30.56,30.56,0,0,0,159,46.75H110.07v81.88l15.61,16.05V62.35H159a15,15,0,0,1,0,30H136.43l-7.33,15.6H150L177,143.68l11.14-11.14-18.55-24.6Z"/><path class="cls-104" d="M187.39,107.72l7.32-15.61h-8.83a30.3,30.3,0,0,0,3.94-15,30.63,30.63,0,0,0-30.59-30.6H110.3V128.4l15.6,16V62.12h33.33a15,15,0,0,1,0,30H136.65l-7.32,15.61h20.93l27,35.73,11.14-11.14L169.8,107.72Z"/><path class="cls-105" d="M187.62,107.49l7.32-15.6h-8.83A30.58,30.58,0,0,0,159.45,46.3H110.53v81.87l15.6,16.05V61.9h33.32a15,15,0,1,1,0,30H136.88l-7.32,15.6h20.92l27,35.73,11.14-11.14L170,107.49Z"/><path class="cls-106" d="M187.85,107.26l7.32-15.6h-8.83a30.58,30.58,0,0,0-26.66-45.59H110.76v81.87L126.36,144V61.67h33.32a15,15,0,1,1,0,30H137.11l-7.32,15.6h20.92l27,35.74,11.14-11.14-18.56-24.6Z"/></g></g><path class="cls-107" d="M159.68,46.07H110.76v81.87L126.36,144V61.67h33.32a15,15,0,1,1,0,30h-9.34v15.6h9.34a30.6,30.6,0,1,0,0-61.19Z"/><polygon class="cls-107" points="137.11 91.66 129.79 107.26 187.85 107.26 195.17 91.66 137.11 91.66"/><polygon class="cls-107" points="177.67 143 188.81 131.86 160.26 94.01 147.8 103.4 177.67 143"/><path class="cls-108" d="M159.68,46.07H142.11v15.6h17.57a15,15,0,1,1,0,30h26.66a30.58,30.58,0,0,0-26.66-45.59Z"/><polygon class="cls-109" points="76.73 68.62 103.74 68.62 65.82 80.64 76.73 68.62"/><polygon class="cls-109" points="75.52 112.07 98.33 101.54 65.9 101.53 75.52 112.07"/><path class="cls-107" d="M282.79,68.07l12.58,20.3H283.29L272.61,69.62h-6.82V88.37H254.62V39.19h17.92c12.22,0,19.74,5,19.74,15.25C292.28,61.25,288.7,65.82,282.79,68.07ZM272.61,47.84h-6.82V61h6.82c5.62,0,8.5-2,8.5-6.53S278.23,47.84,272.61,47.84Z"/><path class="cls-107" d="M334.43,73.62H308.79c.77,4.57,4.07,7.24,9.13,7.24a9.36,9.36,0,0,0,7.87-4.22l7.38,5.13c-3.65,4.85-9.06,7.45-15.67,7.45-11.94,0-19.32-7.94-19.32-19s7.31-19,18.27-19S334.57,59,334.57,70.32A25.48,25.48,0,0,1,334.43,73.62Zm-25.71-7.24H324a7.24,7.24,0,0,0-7.59-6.88C312.16,59.5,309.35,62,308.72,66.38Z"/><path class="cls-107" d="M352.35,63.5V88.37H341.67V37.09h10.68v19a17,17,0,0,1,11.94-4.92c7.59,0,12.72,4.77,12.72,13.91V88.37H366.33V66.17c0-4.28-1.9-6.67-5.76-6.67A11.34,11.34,0,0,0,352.35,63.5Z"/><path class="cls-107" d="M402.51,89.22c-11.24,0-18.61-7.87-18.61-19s7.37-19,18.61-19,18.62,7.87,18.62,19S413.75,89.22,402.51,89.22Zm0-29.72c-4.91,0-7.79,3.86-7.79,10.68s2.88,10.68,7.79,10.68,7.8-3.87,7.8-10.68S407.43,59.5,402.51,59.5Z"/><path class="cls-107" d="M449.59,89.22A15.78,15.78,0,0,1,438.91,85v3.37H428.23V37.09h10.68V55.35a15.77,15.77,0,0,1,10.68-4.21c9.55,0,15.59,7,15.59,19S459.14,89.22,449.59,89.22ZM438.91,62.66v15a10.66,10.66,0,0,0,7.37,3.17c5.41,0,8.08-3.87,8.08-10.68s-2.67-10.68-8.08-10.68A10.64,10.64,0,0,0,438.91,62.66Z"/><path class="cls-107" d="M489.35,89.22c-11.24,0-18.62-7.87-18.62-19s7.38-19,18.62-19S508,59,508,70.18,500.59,89.22,489.35,89.22Zm0-29.72c-4.92,0-7.8,3.86-7.8,10.68s2.88,10.68,7.8,10.68,7.8-3.87,7.8-10.68S494.27,59.5,489.35,59.5Z"/><path class="cls-107" d="M517.74,74.25v-14h-6.19V52h6.19V41.09h10.68V52H537V60.2h-8.57V75.31c0,4.07,1.33,5.55,5.55,5.55,1,0,2.17,0,3-.07v8.15a55.71,55.71,0,0,1-6,.28C521.11,89.22,517.74,84.79,517.74,74.25Z"/><path class="cls-107" d="M554.34,63.5V88.37H543.66V37.09h10.68v19a17,17,0,0,1,11.94-4.92c7.59,0,12.72,4.77,12.72,13.91V88.37H568.32V66.17c0-4.28-1.9-6.67-5.76-6.67A11.34,11.34,0,0,0,554.34,63.5Z"/><path class="cls-107" d="M268.51,107.55H254.62v-9h38.73v9h-13.9v39.14H268.51Z"/><path class="cls-107" d="M319.35,118.63c-.83-.07-1.72-.14-2.69-.14a11.89,11.89,0,0,0-10,5.09v23.11H296.24V111.06h10.45v4.4c2.2-3.23,5.64-5.22,10.46-5.22a20.85,20.85,0,0,1,2.2.13Z"/><path class="cls-107" d="M345.9,125c0-4.26-2.14-6.6-7.29-6.6a13.24,13.24,0,0,0-8.12,2.89l-5.78-5.57a23.7,23.7,0,0,1,15.34-5.5c11.76,0,16,6.12,16,15.33v21.12H345.9v-2.54c-2.48,2.2-5.71,3.37-10,3.37-7.15,0-13.2-4.2-13.2-11.56s6-11.55,13.2-11.55c4.27,0,7.5,1.16,10,3.37Zm0,9.56a10.21,10.21,0,0,0-7.16-2.68c-3.44,0-5.43,1.52-5.43,4.06s2,4.06,5.43,4.06a10.21,10.21,0,0,0,7.16-2.68Z"/><path class="cls-107" d="M375.06,122.34v24.35H364.6V111.06h10.46v4a16.67,16.67,0,0,1,11.69-4.81c7.43,0,12.45,4.67,12.45,13.62v22.83H388.75V125c0-4.2-1.86-6.54-5.64-6.54A11.07,11.07,0,0,0,375.06,122.34Z"/><path class="cls-107" d="M420.94,110.24c6.05,0,11.48,2.06,15.2,5.91l-6.4,4.95a10.13,10.13,0,0,0-7.29-3.16c-2.82,0-4.68.76-4.68,2.34s1.66,2.82,8.12,4.74C433,127.23,437,130.8,437,136.58c0,6.33-5,10.94-14.58,10.94-7,0-13.07-2.34-17.19-7l6.87-5.09a13.15,13.15,0,0,0,9.36,4.4c3.3,0,4.95-1,4.95-2.75,0-1.92-1.51-3-7.08-4.75-8.74-2.68-12.18-6.18-12.18-11.76C407.18,114.71,412.2,110.24,420.94,110.24Z"/><path class="cls-107" d="M465,147.52a15.5,15.5,0,0,1-10.46-4.13v17.88H444.05V111.06H454.5v3.3A15.5,15.5,0,0,1,465,110.24c9.35,0,15.27,6.87,15.27,18.64S474.31,147.52,465,147.52Zm4.68-18.64c0-6.68-2.62-10.46-7.91-10.46a10.47,10.47,0,0,0-7.23,3.1v14.72a10.5,10.5,0,0,0,7.23,3.09C467,139.33,469.64,135.55,469.64,128.88Z"/><path class="cls-107" d="M503.89,147.52c-11,0-18.23-7.71-18.23-18.64s7.22-18.64,18.23-18.64,18.23,7.7,18.23,18.64S514.9,147.52,503.89,147.52Zm0-29.1c-4.81,0-7.63,3.78-7.63,10.46s2.82,10.45,7.63,10.45,7.64-3.78,7.64-10.45S508.71,118.42,503.89,118.42Z"/><path class="cls-107" d="M552.18,118.63c-.83-.07-1.72-.14-2.69-.14a11.89,11.89,0,0,0-10,5.09v23.11H529.07V111.06h10.45v4.4c2.2-3.23,5.64-5.22,10.46-5.22a20.85,20.85,0,0,1,2.2.13Z"/><path class="cls-107" d="M560.15,132.87V119.11h-6v-8h6V100.4h10.46v10.66H579v8h-8.39V133.9c0,4,1.31,5.43,5.43,5.43,1,0,2.14,0,3-.07v8a53.18,53.18,0,0,1-5.92.28C563.46,147.52,560.15,143.18,560.15,132.87Z"/></svg>